<svg width="30" height="40" viewBox="0 0 30 40" fill="none" xmlns="http://www.w3.org/2000/svg">
<path d="M9.65781 24.8257H7.60377V22.5683H17.1465C17.1828 22.5683 17.2143 22.5683 17.2418 22.5683C17.2854 22.5683 17.3169 22.5747 17.3354 22.5779C17.5995 22.6239 17.8389 22.7616 18.0112 22.9666C18.1495 23.1311 18.2379 23.3316 18.266 23.5445C18.2942 23.7574 18.2609 23.9739 18.1701 24.1686C18.0793 24.3633 17.9348 24.5281 17.7535 24.6437C17.5722 24.7592 17.3616 24.8207 17.1465 24.8209H9.65781V24.8257ZM5.53034 24.8257V31H17.157C19.0953 30.9957 20.9531 30.2249 22.3237 28.8563C23.6943 27.4876 24.4662 25.6326 24.4705 23.697C24.4705 23.1408 24.406 22.5864 24.2783 22.045C24.0648 21.1291 23.6751 20.2633 23.131 19.4957C23.8992 18.4025 24.3525 17.1199 24.4415 15.7874C24.5305 14.4549 24.2518 13.1235 23.6357 11.9382C23.0196 10.7528 22.0897 9.75891 20.9473 9.0646C19.8049 8.37028 18.4936 8.00214 17.1562 8.00024H5.52954V24.8257H5.53034ZM7.60377 14.1769H17.1465C17.4318 14.1734 17.7079 14.2779 17.9193 14.4692C18.1307 14.6606 18.2618 14.9247 18.2863 15.2085C18.3108 15.4924 18.2269 15.775 18.0515 15.9997C17.876 16.2243 17.622 16.3744 17.3403 16.4198C17.1215 16.415 16.9002 16.4198 16.6782 16.4344H7.60457V14.1769H7.60377ZM7.60377 20.4978V18.5048H17.1473C17.199 18.5048 17.2531 18.5048 17.3088 18.5C17.8747 18.4494 18.4191 18.2591 18.8931 17.9462C19.3671 17.6334 19.7557 17.2078 20.0241 16.7077C20.2617 16.2201 20.3713 15.6803 20.3428 15.1389C20.3142 14.5974 20.1484 14.0721 19.8608 13.6121C19.5732 13.1522 19.1734 12.7728 18.6988 12.5094C18.2241 12.246 17.6903 12.1074 17.1473 12.1064H7.60457V10.0731H17.1562C18.006 10.0735 18.8429 10.2802 19.5949 10.6752C20.3469 11.0703 20.9915 11.642 21.4732 12.3411C21.9549 13.0401 22.2592 13.8456 22.3599 14.6882C22.4607 15.5307 22.3548 16.3851 22.0515 17.1777C21.685 18.1093 21.0356 18.9029 20.1945 19.4473L20.2647 19.4981C21.2721 20.2331 21.9822 21.3044 22.2663 22.5175C22.4415 23.2846 22.4417 24.0812 22.2668 24.8483C22.092 25.6155 21.7466 26.3336 21.2562 26.9494C20.7658 27.5652 20.1429 28.063 19.4338 28.4059C18.7246 28.7488 17.9473 28.928 17.1594 28.9303H7.60457V26.8962H17.1473C17.9504 26.8955 18.7239 26.5936 19.3146 26.0503C19.9053 25.507 20.2701 24.762 20.3366 23.9628C20.4032 23.1636 20.1666 22.3686 19.6739 21.7354C19.1811 21.1022 18.4681 20.6769 17.6762 20.5438C17.5785 20.5277 17.4897 20.5156 17.4121 20.5099C17.3217 20.5019 17.2329 20.4978 17.1473 20.4978H7.60377Z" fill="black"/>
</svg>
